# xmcd CD database file
#
# Track frame offsets:
#	150
#	18365
#	36313
#	55000
#	76451
#	93854
#	114092
#	132181
#	145225
#	158158
#	171982
#	183740
#	197458
#	216081
#
# Disc length: 3090 seconds
#
# Revision: 2
# Processed by: cddbd v1.4b41PL1 Copyright (c) Steve Scherf et al.
# Submitted via: Feurio! 1.50.2ß - http://www.feurio.com
#
DISCID=b70c100e
DTITLE=Aerobics 14 - CD-1 (14) LO Workout
DYEAR=1900
DGENRE=
TTITLE0=134 - blue
TTITLE1=136 - All I realy want
TTITLE2=138 - look up
TTITLE3=140 - fellig it to
TTITLE4=141 - killer
TTITLE5=142 - pray
TTITLE6=143 - altwater
TTITLE7=144 - love mw right
TTITLE8=144 - the power of good bye
TTITLE9=146 - not over yet 99
TTITLE10=147 - livin for the weekend
TTITLE11=148 - new emaotion
TTITLE12=100 - as 
TTITLE13=100 - rythm drivine
EXTD=
EXTT0=
EXTT1=
EXTT2=
EXTT3=
EXTT4=
EXTT5=
EXTT6=
EXTT7=
EXTT8=
EXTT9=
EXTT10=
EXTT11=
EXTT12=
EXTT13=
PLAYORDER=
